<svg xmlns="http://www.w3.org/2000/svg" xmlns:xlink="http://www.w3.org/1999/xlink" width="300" zoomAndPan="magnify" viewBox="0 0 300 90" height="90"  preserveAspectRatio="xMidYMid meet" version="1.0"><defs><g/><clipPath id="e490af2ea1"><path d="M 174 34 L 177 34 L 177 41 L 174 41 Z M 174 34 " clip-rule="nonzero"/></clipPath><clipPath id="1a63056638"><path d="M 184.566406 11.375 L 204.269531 20.578125 L 194.113281 42.324219 L 174.40625 33.117188 Z M 184.566406 11.375 " clip-rule="nonzero"/></clipPath><clipPath id="8de6d1f159"><path d="M 179 15 L 201 15 L 201 39 L 179 39 Z M 179 15 " clip-rule="nonzero"/></clipPath><clipPath id="4e4fcdd924"><path d="M 184.566406 11.375 L 204.269531 20.578125 L 194.113281 42.324219 L 174.40625 33.117188 Z M 184.566406 11.375 " clip-rule="nonzero"/></clipPath><clipPath id="52a5a63e03"><path d="M 184.566406 11.375 L 204.269531 20.578125 L 194.113281 42.324219 L 174.40625 33.117188 Z M 184.566406 11.375 " clip-rule="nonzero"/></clipPath><clipPath id="001b582eb9"><path d="M 187 20 L 196 20 L 196 30 L 187 30 Z M 187 20 " clip-rule="nonzero"/></clipPath><clipPath id="10d33e435e"><path d="M 184.566406 11.375 L 204.269531 20.578125 L 194.113281 42.324219 L 174.40625 33.117188 Z M 184.566406 11.375 " clip-rule="nonzero"/></clipPath><clipPath id="b2e19b7b08"><path d="M 184.566406 11.375 L 204.269531 20.578125 L 194.113281 42.324219 L 174.40625 33.117188 Z M 184.566406 11.375 " clip-rule="nonzero"/></clipPath></defs><g clip-path="url(#e490af2ea1)"><g clip-path="url(#1a63056638)"><g fill="#000000" fill-opacity="1"><g transform="translate(171.549143, 39.233142)"><g><path d="M 4.1875 -0.765625 C 3.46875 0.773438 2.625 1.316406 1.65625 0.859375 C 1.1875 0.640625 0.921875 0.273438 0.859375 -0.234375 C 0.796875 -0.742188 0.941406 -1.367188 1.296875 -2.109375 C 1.640625 -2.847656 2.023438 -3.359375 2.453125 -3.640625 C 2.878906 -3.921875 3.332031 -3.945312 3.8125 -3.71875 C 4.28125 -3.5 4.546875 -3.140625 4.609375 -2.640625 C 4.671875 -2.140625 4.53125 -1.515625 4.1875 -0.765625 Z M 3.578125 -1.046875 C 3.910156 -1.765625 4.082031 -2.3125 4.09375 -2.6875 C 4.101562 -3.070312 3.960938 -3.332031 3.671875 -3.46875 C 3.378906 -3.601562 3.097656 -3.550781 2.828125 -3.3125 C 2.566406 -3.082031 2.257812 -2.585938 1.90625 -1.828125 C 1.550781 -1.085938 1.367188 -0.53125 1.359375 -0.15625 C 1.359375 0.207031 1.5 0.453125 1.78125 0.578125 C 2.070312 0.710938 2.359375 0.65625 2.640625 0.40625 C 2.929688 0.15625 3.242188 -0.328125 3.578125 -1.046875 Z M 3.578125 -1.046875 "/></g></g></g></g></g><g clip-path="url(#8de6d1f159)"><g clip-path="url(#4e4fcdd924)"><g clip-path="url(#52a5a63e03)"><path fill="#ff6347" d="M 200.957031 24.914062 C 200.984375 22.910156 200.242188 20.964844 198.847656 19.546875 C 196.101562 16.761719 192.007812 15.050781 188.074219 15.835938 C 184.230469 16.601562 180.683594 19.6875 179.464844 23.480469 C 178.835938 25.4375 178.9375 27.550781 179.953125 29.332031 C 180.523438 30.328125 181.359375 31.183594 182.273438 31.871094 C 182.699219 32.195312 183.15625 32.5 183.640625 32.730469 C 184.167969 32.984375 184.734375 33.148438 185.289062 33.332031 C 185.730469 33.472656 186.222656 33.605469 186.613281 33.867188 C 186.628906 33.878906 186.644531 33.882812 186.664062 33.890625 C 186.03125 35.074219 185.832031 36.4375 185.246094 37.644531 C 185.105469 37.941406 185.410156 38.257812 185.707031 38.152344 C 186.578125 37.839844 187.277344 37.148438 187.90625 36.484375 C 188.253906 36.121094 188.585938 35.738281 188.921875 35.363281 C 189.078125 35.1875 189.238281 35.011719 189.40625 34.839844 C 189.480469 34.761719 189.570312 34.683594 189.648438 34.601562 C 190.269531 34.726562 190.960938 34.714844 191.585938 34.667969 C 191.949219 34.640625 192.292969 34.589844 192.621094 34.503906 C 193.609375 34.429688 194.59375 34.214844 195.503906 33.851562 C 197.109375 33.210938 198.453125 32.058594 199.355469 30.570312 C 200.371094 28.917969 200.933594 26.847656 200.957031 24.914062 Z M 196.296875 32.769531 C 194.726562 33.746094 192.882812 34.082031 191.074219 34.078125 C 190.828125 34.074219 190.578125 34.078125 190.328125 34.078125 C 190.167969 34.0625 190.007812 34.042969 189.847656 34.023438 C 189.78125 33.871094 189.617188 33.777344 189.421875 33.832031 C 189.039062 33.929688 188.675781 34.464844 188.417969 34.75 C 188.101562 35.097656 187.789062 35.453125 187.46875 35.800781 C 187.097656 36.203125 186.695312 36.644531 186.242188 36.996094 C 186.519531 35.988281 186.664062 34.953125 187.011719 33.96875 C 187.113281 33.957031 187.210938 33.910156 187.296875 33.8125 C 187.453125 33.632812 187.464844 33.269531 187.25 33.125 C 186.394531 32.5625 185.359375 32.386719 184.425781 32.011719 C 183.460938 31.628906 182.605469 30.972656 181.878906 30.242188 C 180.519531 28.878906 179.816406 27.039062 180.074219 25.089844 C 180.3125 23.300781 181.21875 21.660156 182.386719 20.3125 C 183.609375 18.90625 185.148438 17.765625 186.894531 17.136719 C 190.394531 15.878906 194.199219 16.9375 197.03125 19.167969 C 197.777344 19.753906 198.496094 20.40625 199.027344 21.203125 C 199.523438 21.945312 199.855469 22.796875 200.007812 23.675781 C 200.320312 25.515625 199.988281 27.421875 199.289062 29.140625 C 198.664062 30.644531 197.675781 31.914062 196.296875 32.769531 Z M 196.296875 32.769531 " fill-opacity="1" fill-rule="nonzero"/></g></g></g><g clip-path="url(#001b582eb9)"><g clip-path="url(#10d33e435e)"><g clip-path="url(#b2e19b7b08)"><path fill="#ff6347" d="M 195.152344 22.460938 C 194.984375 21.976562 194.5625 21.695312 194.101562 21.636719 C 193.585938 21.46875 192.929688 21.660156 192.480469 21.90625 C 192.046875 22.140625 191.660156 22.488281 191.351562 22.875 C 191.164062 23.113281 191.003906 23.359375 190.84375 23.613281 C 190.824219 23.550781 190.78125 23.5 190.730469 23.460938 C 190.6875 22.980469 190.546875 22.511719 190.351562 22.0625 C 190.085938 21.445312 189.632812 20.589844 188.902344 20.476562 C 188.054688 20.335938 187.53125 21.386719 187.425781 22.082031 C 187.246094 23.257812 187.613281 24.378906 187.804688 25.519531 C 187.898438 26.117188 187.910156 26.730469 188.007812 27.332031 C 188.035156 27.539062 188.078125 27.808594 188.164062 28.050781 C 188.171875 28.128906 188.175781 28.207031 188.1875 28.285156 C 188.207031 28.46875 188.226562 28.714844 188.292969 28.933594 C 188.308594 29.089844 188.320312 29.246094 188.355469 29.394531 C 188.390625 29.558594 188.632812 29.621094 188.753906 29.519531 C 188.761719 29.515625 188.769531 29.507812 188.777344 29.5 C 189.148438 29.382812 189.527344 29.191406 189.875 28.949219 C 191.433594 28.078125 192.984375 27.074219 194.117188 25.679688 C 194.535156 25.160156 195.109375 24.226562 195.199219 23.394531 C 195.253906 23.070312 195.253906 22.746094 195.152344 22.460938 Z M 195.152344 22.460938 " fill-opacity="1" fill-rule="nonzero"/></g></g></g><g fill="#ff66c4" fill-opacity="0.302"><g transform="translate(105.22039, 49.375674)"><g><path d="M 17.75 -3.421875 C 17.675781 -3.171875 17.640625 -2.921875 17.640625 -2.671875 C 17.640625 -2.460938 17.664062 -2.285156 17.71875 -2.140625 C 17.78125 -1.992188 17.84375 -1.875 17.90625 -1.78125 C 17.976562 -1.695312 18.023438 -1.632812 18.046875 -1.59375 C 18.242188 -1.40625 18.34375 -1.210938 18.34375 -1.015625 C 18.34375 -0.972656 18.320312 -0.878906 18.28125 -0.734375 C 18.207031 -0.453125 18.035156 -0.257812 17.765625 -0.15625 C 17.503906 -0.0507812 17.101562 0 16.5625 0 L 9.671875 0 C 9.265625 0 8.953125 -0.0664062 8.734375 -0.203125 C 8.515625 -0.335938 8.40625 -0.519531 8.40625 -0.75 C 8.40625 -0.875 8.429688 -1.003906 8.484375 -1.140625 C 8.546875 -1.285156 8.628906 -1.398438 8.734375 -1.484375 C 8.835938 -1.578125 8.988281 -1.679688 9.1875 -1.796875 C 9.5 -1.972656 9.75 -2.164062 9.9375 -2.375 C 10.132812 -2.59375 10.300781 -2.941406 10.4375 -3.421875 L 11.1875 -5.921875 L 6.65625 -5.921875 L 5.875 -4.265625 C 5.539062 -3.554688 5.375 -3 5.375 -2.59375 C 5.375 -2.351562 5.410156 -2.160156 5.484375 -2.015625 C 5.566406 -1.867188 5.6875 -1.71875 5.84375 -1.5625 C 5.976562 -1.414062 6.066406 -1.285156 6.109375 -1.171875 C 6.160156 -1.066406 6.164062 -0.925781 6.125 -0.75 C 6.050781 -0.457031 5.894531 -0.257812 5.65625 -0.15625 C 5.414062 -0.0507812 5.03125 0 4.5 0 L 0.171875 0 C -0.273438 0 -0.613281 -0.0820312 -0.84375 -0.25 C -1.070312 -0.414062 -1.1875 -0.632812 -1.1875 -0.90625 C -1.1875 -1.207031 -1.070312 -1.453125 -0.84375 -1.640625 C -0.625 -1.828125 -0.296875 -2.023438 0.140625 -2.234375 C 0.722656 -2.523438 1.1875 -2.8125 1.53125 -3.09375 C 1.882812 -3.375 2.1875 -3.765625 2.4375 -4.265625 L 7.609375 -15 C 8.410156 -16.664062 9.347656 -17.867188 10.421875 -18.609375 C 11.492188 -19.359375 12.910156 -19.734375 14.671875 -19.734375 C 16.648438 -19.734375 18.179688 -19.332031 19.265625 -18.53125 C 20.347656 -17.726562 20.890625 -16.609375 20.890625 -15.171875 C 20.890625 -14.566406 20.796875 -13.945312 20.609375 -13.3125 Z M 12.0625 -8.828125 L 13.59375 -13.953125 C 13.675781 -14.179688 13.71875 -14.421875 13.71875 -14.671875 C 13.71875 -15.046875 13.613281 -15.320312 13.40625 -15.5 C 13.207031 -15.6875 12.925781 -15.78125 12.5625 -15.78125 C 12.09375 -15.78125 11.691406 -15.644531 11.359375 -15.375 C 11.035156 -15.101562 10.707031 -14.617188 10.375 -13.921875 L 8 -8.828125 Z M 12.0625 -8.828125 "/></g></g></g><g fill="#ff66c4" fill-opacity="0.302"><g transform="translate(124.052806, 49.375674)"><g><path d="M 27.640625 -4.015625 C 27.597656 -3.929688 27.578125 -3.8125 27.578125 -3.65625 C 27.578125 -3.519531 27.609375 -3.410156 27.671875 -3.328125 C 27.742188 -3.253906 27.835938 -3.21875 27.953125 -3.21875 C 28.191406 -3.21875 28.390625 -3.320312 28.546875 -3.53125 C 28.710938 -3.738281 28.828125 -3.84375 28.890625 -3.84375 C 28.984375 -3.84375 29.054688 -3.773438 29.109375 -3.640625 C 29.171875 -3.515625 29.203125 -3.367188 29.203125 -3.203125 C 29.222656 -2.640625 29.039062 -2.085938 28.65625 -1.546875 C 28.269531 -1.015625 27.703125 -0.578125 26.953125 -0.234375 C 26.210938 0.0976562 25.316406 0.265625 24.265625 0.265625 C 22.984375 0.265625 21.960938 -0.03125 21.203125 -0.625 C 20.453125 -1.21875 20.066406 -2.007812 20.046875 -3 C 20.046875 -3.707031 20.222656 -4.507812 20.578125 -5.40625 L 22.171875 -9.59375 C 22.265625 -9.84375 22.3125 -10.046875 22.3125 -10.203125 C 22.3125 -10.453125 22.226562 -10.648438 22.0625 -10.796875 C 21.90625 -10.941406 21.710938 -11.015625 21.484375 -11.015625 C 21.148438 -11.015625 20.804688 -10.867188 20.453125 -10.578125 C 20.109375 -10.285156 19.800781 -9.832031 19.53125 -9.21875 L 17.9375 -4.015625 C 17.894531 -3.929688 17.875 -3.8125 17.875 -3.65625 C 17.875 -3.519531 17.90625 -3.410156 17.96875 -3.328125 C 18.039062 -3.253906 18.132812 -3.21875 18.25 -3.21875 C 18.476562 -3.21875 18.675781 -3.320312 18.84375 -3.53125 C 19.007812 -3.738281 19.125 -3.84375 19.1875 -3.84375 C 19.28125 -3.84375 19.351562 -3.773438 19.40625 -3.640625 C 19.46875 -3.515625 19.5 -3.367188 19.5 -3.203125 C 19.519531 -2.640625 19.335938 -2.085938 18.953125 -1.546875 C 18.566406 -1.015625 18 -0.578125 17.25 -0.234375 C 16.5 0.0976562 15.601562 0.265625 14.5625 0.265625 C 13.28125 0.265625 12.257812 -0.03125 11.5 -0.625 C 10.75 -1.21875 10.363281 -2.007812 10.34375 -3 C 10.34375 -3.707031 10.519531 -4.507812 10.875 -5.40625 L 12.46875 -9.59375 C 12.5625 -9.84375 12.609375 -10.046875 12.609375 -10.203125 C 12.609375 -10.453125 12.523438 -10.648438 12.359375 -10.796875 C 12.203125 -10.941406 12.003906 -11.015625 11.765625 -11.015625 C 11.441406 -11.015625 11.101562 -10.875 10.75 -10.59375 C 10.40625 -10.3125 10.113281 -9.859375 9.875 -9.234375 L 7.96875 -3.015625 C 7.882812 -2.804688 7.84375 -2.601562 7.84375 -2.40625 C 7.84375 -2.175781 7.890625 -1.988281 7.984375 -1.84375 C 8.085938 -1.695312 8.226562 -1.546875 8.40625 -1.390625 C 8.539062 -1.273438 8.632812 -1.171875 8.6875 -1.078125 C 8.75 -0.984375 8.757812 -0.867188 8.71875 -0.734375 C 8.644531 -0.472656 8.460938 -0.285156 8.171875 -0.171875 C 7.878906 -0.0546875 7.421875 0 6.796875 0 L 0.171875 0 C -0.328125 0 -0.6875 -0.0820312 -0.90625 -0.25 C -1.132812 -0.414062 -1.21875 -0.632812 -1.15625 -0.90625 C -1.082031 -1.132812 -0.878906 -1.335938 -0.546875 -1.515625 C -0.253906 -1.671875 -0.015625 -1.851562 0.171875 -2.0625 C 0.367188 -2.28125 0.535156 -2.617188 0.671875 -3.078125 L 3.25 -11.484375 C 3.289062 -11.578125 3.3125 -11.710938 3.3125 -11.890625 C 3.3125 -12.097656 3.265625 -12.257812 3.171875 -12.375 C 3.085938 -12.5 2.953125 -12.644531 2.765625 -12.8125 C 2.566406 -12.96875 2.425781 -13.101562 2.34375 -13.21875 C 2.269531 -13.332031 2.265625 -13.488281 2.328125 -13.6875 C 2.441406 -14.132812 3.050781 -14.523438 4.15625 -14.859375 C 5.257812 -15.203125 6.410156 -15.375 7.609375 -15.375 C 8.554688 -15.375 9.304688 -15.113281 9.859375 -14.59375 C 10.410156 -14.070312 10.679688 -13.351562 10.671875 -12.4375 C 11.460938 -13.539062 12.296875 -14.304688 13.171875 -14.734375 C 14.054688 -15.160156 15.015625 -15.375 16.046875 -15.375 C 17.171875 -15.375 18.082031 -15.046875 18.78125 -14.390625 C 19.488281 -13.742188 19.882812 -12.898438 19.96875 -11.859375 C 20.800781 -13.171875 21.691406 -14.082031 22.640625 -14.59375 C 23.585938 -15.113281 24.625 -15.375 25.75 -15.375 C 26.925781 -15.375 27.878906 -15.015625 28.609375 -14.296875 C 29.335938 -13.578125 29.703125 -12.648438 29.703125 -11.515625 C 29.703125 -10.910156 29.601562 -10.316406 29.40625 -9.734375 Z M 27.640625 -4.015625 "/></g></g></g><g fill="#ff66c4" fill-opacity="0.302"><g transform="translate(153.057073, 49.375674)"><g><path d="M 11.25 -15.375 C 13.882812 -15.375 15.828125 -14.835938 17.078125 -13.765625 C 18.328125 -12.703125 18.953125 -11.3125 18.953125 -9.59375 C 18.953125 -9.007812 18.875 -8.359375 18.71875 -7.640625 C 18.351562 -6.054688 17.664062 -4.664062 16.65625 -3.46875 C 15.644531 -2.28125 14.40625 -1.359375 12.9375 -0.703125 C 11.476562 -0.0546875 9.898438 0.265625 8.203125 0.265625 C 5.503906 0.265625 3.507812 -0.269531 2.21875 -1.34375 C 0.9375 -2.425781 0.296875 -3.859375 0.296875 -5.640625 C 0.296875 -6.242188 0.367188 -6.910156 0.515625 -7.640625 C 0.890625 -9.148438 1.59375 -10.488281 2.625 -11.65625 C 3.664062 -12.832031 4.9375 -13.742188 6.4375 -14.390625 C 7.9375 -15.046875 9.539062 -15.375 11.25 -15.375 Z M 11.15625 -12.78125 C 10.75 -12.78125 10.316406 -12.414062 9.859375 -11.6875 C 9.410156 -10.96875 8.875 -9.597656 8.25 -7.578125 C 7.632812 -5.566406 7.328125 -4.15625 7.328125 -3.34375 C 7.328125 -2.914062 7.394531 -2.628906 7.53125 -2.484375 C 7.664062 -2.335938 7.847656 -2.265625 8.078125 -2.265625 C 8.484375 -2.222656 8.90625 -2.570312 9.34375 -3.3125 C 9.78125 -4.050781 10.328125 -5.484375 10.984375 -7.609375 C 11.585938 -9.492188 11.890625 -10.863281 11.890625 -11.71875 C 11.890625 -12.125 11.828125 -12.398438 11.703125 -12.546875 C 11.578125 -12.703125 11.394531 -12.78125 11.15625 -12.78125 Z M 11.15625 -12.78125 "/></g></g></g><g fill="#ff66c4" fill-opacity="0.302"><g transform="translate(170.66886, 49.375674)"><g><path d="M 14.265625 -15.375 C 15.347656 -15.375 16.210938 -15.039062 16.859375 -14.375 C 17.515625 -13.71875 17.84375 -12.90625 17.84375 -11.9375 C 17.84375 -11.570312 17.804688 -11.234375 17.734375 -10.921875 C 17.535156 -10.128906 17.164062 -9.519531 16.625 -9.09375 C 16.082031 -8.664062 15.429688 -8.453125 14.671875 -8.453125 C 13.941406 -8.453125 13.382812 -8.625 13 -8.96875 C 12.625 -9.320312 12.289062 -9.789062 12 -10.375 C 11.84375 -10.707031 11.695312 -10.945312 11.5625 -11.09375 C 11.425781 -11.25 11.273438 -11.328125 11.109375 -11.328125 C 10.910156 -11.328125 10.738281 -11.25 10.59375 -11.09375 C 10.445312 -10.945312 10.316406 -10.675781 10.203125 -10.28125 L 7.96875 -3.015625 C 7.925781 -2.921875 7.90625 -2.78125 7.90625 -2.59375 C 7.90625 -2.332031 7.976562 -2.117188 8.125 -1.953125 C 8.269531 -1.796875 8.46875 -1.640625 8.71875 -1.484375 C 8.945312 -1.328125 9.097656 -1.195312 9.171875 -1.09375 C 9.253906 -1 9.285156 -0.878906 9.265625 -0.734375 C 9.234375 -0.472656 9.09375 -0.285156 8.84375 -0.171875 C 8.601562 -0.0546875 8.191406 0 7.609375 0 L 0.171875 0 C -0.328125 0 -0.6875 -0.0820312 -0.90625 -0.25 C -1.132812 -0.414062 -1.21875 -0.632812 -1.15625 -0.90625 C -1.082031 -1.132812 -0.878906 -1.335938 -0.546875 -1.515625 C -0.253906 -1.671875 -0.015625 -1.851562 0.171875 -2.0625 C 0.367188 -2.28125 0.535156 -2.617188 0.671875 -3.078125 L 3.25 -11.484375 C 3.289062 -11.578125 3.3125 -11.710938 3.3125 -11.890625 C 3.3125 -12.097656 3.265625 -12.257812 3.171875 -12.375 C 3.085938 -12.5 2.953125 -12.644531 2.765625 -12.8125 C 2.566406 -12.96875 2.425781 -13.101562 2.34375 -13.21875 C 2.269531 -13.332031 2.265625 -13.488281 2.328125 -13.6875 C 2.441406 -14.132812 3.050781 -14.523438 4.15625 -14.859375 C 5.257812 -15.203125 6.410156 -15.375 7.609375 -15.375 C 8.410156 -15.375 9.070312 -15.191406 9.59375 -14.828125 C 10.113281 -14.472656 10.453125 -13.96875 10.609375 -13.3125 C 11.535156 -14.6875 12.753906 -15.375 14.265625 -15.375 Z M 14.265625 -15.375 "/></g></g></g><g fill="#ffffff" fill-opacity="1"><g transform="translate(105.22039, 52.499997)"><g><path d="M 17.75 -3.421875 C 17.675781 -3.171875 17.640625 -2.921875 17.640625 -2.671875 C 17.640625 -2.460938 17.664062 -2.285156 17.71875 -2.140625 C 17.78125 -1.992188 17.84375 -1.875 17.90625 -1.78125 C 17.976562 -1.695312 18.023438 -1.632812 18.046875 -1.59375 C 18.242188 -1.40625 18.34375 -1.210938 18.34375 -1.015625 C 18.34375 -0.972656 18.320312 -0.878906 18.28125 -0.734375 C 18.207031 -0.453125 18.035156 -0.257812 17.765625 -0.15625 C 17.503906 -0.0507812 17.101562 0 16.5625 0 L 9.671875 0 C 9.265625 0 8.953125 -0.0664062 8.734375 -0.203125 C 8.515625 -0.335938 8.40625 -0.519531 8.40625 -0.75 C 8.40625 -0.875 8.429688 -1.003906 8.484375 -1.140625 C 8.546875 -1.285156 8.628906 -1.398438 8.734375 -1.484375 C 8.835938 -1.578125 8.988281 -1.679688 9.1875 -1.796875 C 9.5 -1.972656 9.75 -2.164062 9.9375 -2.375 C 10.132812 -2.59375 10.300781 -2.941406 10.4375 -3.421875 L 11.1875 -5.921875 L 6.65625 -5.921875 L 5.875 -4.265625 C 5.539062 -3.554688 5.375 -3 5.375 -2.59375 C 5.375 -2.351562 5.410156 -2.160156 5.484375 -2.015625 C 5.566406 -1.867188 5.6875 -1.71875 5.84375 -1.5625 C 5.976562 -1.414062 6.066406 -1.285156 6.109375 -1.171875 C 6.160156 -1.066406 6.164062 -0.925781 6.125 -0.75 C 6.050781 -0.457031 5.894531 -0.257812 5.65625 -0.15625 C 5.414062 -0.0507812 5.03125 0 4.5 0 L 0.171875 0 C -0.273438 0 -0.613281 -0.0820312 -0.84375 -0.25 C -1.070312 -0.414062 -1.1875 -0.632812 -1.1875 -0.90625 C -1.1875 -1.207031 -1.070312 -1.453125 -0.84375 -1.640625 C -0.625 -1.828125 -0.296875 -2.023438 0.140625 -2.234375 C 0.722656 -2.523438 1.1875 -2.8125 1.53125 -3.09375 C 1.882812 -3.375 2.1875 -3.765625 2.4375 -4.265625 L 7.609375 -15 C 8.410156 -16.664062 9.347656 -17.867188 10.421875 -18.609375 C 11.492188 -19.359375 12.910156 -19.734375 14.671875 -19.734375 C 16.648438 -19.734375 18.179688 -19.332031 19.265625 -18.53125 C 20.347656 -17.726562 20.890625 -16.609375 20.890625 -15.171875 C 20.890625 -14.566406 20.796875 -13.945312 20.609375 -13.3125 Z M 12.0625 -8.828125 L 13.59375 -13.953125 C 13.675781 -14.179688 13.71875 -14.421875 13.71875 -14.671875 C 13.71875 -15.046875 13.613281 -15.320312 13.40625 -15.5 C 13.207031 -15.6875 12.925781 -15.78125 12.5625 -15.78125 C 12.09375 -15.78125 11.691406 -15.644531 11.359375 -15.375 C 11.035156 -15.101562 10.707031 -14.617188 10.375 -13.921875 L 8 -8.828125 Z M 12.0625 -8.828125 "/></g></g></g><g fill="#ffffff" fill-opacity="1"><g transform="translate(124.052806, 52.499997)"><g><path d="M 27.640625 -4.015625 C 27.597656 -3.929688 27.578125 -3.8125 27.578125 -3.65625 C 27.578125 -3.519531 27.609375 -3.410156 27.671875 -3.328125 C 27.742188 -3.253906 27.835938 -3.21875 27.953125 -3.21875 C 28.191406 -3.21875 28.390625 -3.320312 28.546875 -3.53125 C 28.710938 -3.738281 28.828125 -3.84375 28.890625 -3.84375 C 28.984375 -3.84375 29.054688 -3.773438 29.109375 -3.640625 C 29.171875 -3.515625 29.203125 -3.367188 29.203125 -3.203125 C 29.222656 -2.640625 29.039062 -2.085938 28.65625 -1.546875 C 28.269531 -1.015625 27.703125 -0.578125 26.953125 -0.234375 C 26.210938 0.0976562 25.316406 0.265625 24.265625 0.265625 C 22.984375 0.265625 21.960938 -0.03125 21.203125 -0.625 C 20.453125 -1.21875 20.066406 -2.007812 20.046875 -3 C 20.046875 -3.707031 20.222656 -4.507812 20.578125 -5.40625 L 22.171875 -9.59375 C 22.265625 -9.84375 22.3125 -10.046875 22.3125 -10.203125 C 22.3125 -10.453125 22.226562 -10.648438 22.0625 -10.796875 C 21.90625 -10.941406 21.710938 -11.015625 21.484375 -11.015625 C 21.148438 -11.015625 20.804688 -10.867188 20.453125 -10.578125 C 20.109375 -10.285156 19.800781 -9.832031 19.53125 -9.21875 L 17.9375 -4.015625 C 17.894531 -3.929688 17.875 -3.8125 17.875 -3.65625 C 17.875 -3.519531 17.90625 -3.410156 17.96875 -3.328125 C 18.039062 -3.253906 18.132812 -3.21875 18.25 -3.21875 C 18.476562 -3.21875 18.675781 -3.320312 18.84375 -3.53125 C 19.007812 -3.738281 19.125 -3.84375 19.1875 -3.84375 C 19.28125 -3.84375 19.351562 -3.773438 19.40625 -3.640625 C 19.46875 -3.515625 19.5 -3.367188 19.5 -3.203125 C 19.519531 -2.640625 19.335938 -2.085938 18.953125 -1.546875 C 18.566406 -1.015625 18 -0.578125 17.25 -0.234375 C 16.5 0.0976562 15.601562 0.265625 14.5625 0.265625 C 13.28125 0.265625 12.257812 -0.03125 11.5 -0.625 C 10.75 -1.21875 10.363281 -2.007812 10.34375 -3 C 10.34375 -3.707031 10.519531 -4.507812 10.875 -5.40625 L 12.46875 -9.59375 C 12.5625 -9.84375 12.609375 -10.046875 12.609375 -10.203125 C 12.609375 -10.453125 12.523438 -10.648438 12.359375 -10.796875 C 12.203125 -10.941406 12.003906 -11.015625 11.765625 -11.015625 C 11.441406 -11.015625 11.101562 -10.875 10.75 -10.59375 C 10.40625 -10.3125 10.113281 -9.859375 9.875 -9.234375 L 7.96875 -3.015625 C 7.882812 -2.804688 7.84375 -2.601562 7.84375 -2.40625 C 7.84375 -2.175781 7.890625 -1.988281 7.984375 -1.84375 C 8.085938 -1.695312 8.226562 -1.546875 8.40625 -1.390625 C 8.539062 -1.273438 8.632812 -1.171875 8.6875 -1.078125 C 8.75 -0.984375 8.757812 -0.867188 8.71875 -0.734375 C 8.644531 -0.472656 8.460938 -0.285156 8.171875 -0.171875 C 7.878906 -0.0546875 7.421875 0 6.796875 0 L 0.171875 0 C -0.328125 0 -0.6875 -0.0820312 -0.90625 -0.25 C -1.132812 -0.414062 -1.21875 -0.632812 -1.15625 -0.90625 C -1.082031 -1.132812 -0.878906 -1.335938 -0.546875 -1.515625 C -0.253906 -1.671875 -0.015625 -1.851562 0.171875 -2.0625 C 0.367188 -2.28125 0.535156 -2.617188 0.671875 -3.078125 L 3.25 -11.484375 C 3.289062 -11.578125 3.3125 -11.710938 3.3125 -11.890625 C 3.3125 -12.097656 3.265625 -12.257812 3.171875 -12.375 C 3.085938 -12.5 2.953125 -12.644531 2.765625 -12.8125 C 2.566406 -12.96875 2.425781 -13.101562 2.34375 -13.21875 C 2.269531 -13.332031 2.265625 -13.488281 2.328125 -13.6875 C 2.441406 -14.132812 3.050781 -14.523438 4.15625 -14.859375 C 5.257812 -15.203125 6.410156 -15.375 7.609375 -15.375 C 8.554688 -15.375 9.304688 -15.113281 9.859375 -14.59375 C 10.410156 -14.070312 10.679688 -13.351562 10.671875 -12.4375 C 11.460938 -13.539062 12.296875 -14.304688 13.171875 -14.734375 C 14.054688 -15.160156 15.015625 -15.375 16.046875 -15.375 C 17.171875 -15.375 18.082031 -15.046875 18.78125 -14.390625 C 19.488281 -13.742188 19.882812 -12.898438 19.96875 -11.859375 C 20.800781 -13.171875 21.691406 -14.082031 22.640625 -14.59375 C 23.585938 -15.113281 24.625 -15.375 25.75 -15.375 C 26.925781 -15.375 27.878906 -15.015625 28.609375 -14.296875 C 29.335938 -13.578125 29.703125 -12.648438 29.703125 -11.515625 C 29.703125 -10.910156 29.601562 -10.316406 29.40625 -9.734375 Z M 27.640625 -4.015625 "/></g></g></g><g fill="#ffffff" fill-opacity="1"><g transform="translate(153.057073, 52.499997)"><g><path d="M 11.25 -15.375 C 13.882812 -15.375 15.828125 -14.835938 17.078125 -13.765625 C 18.328125 -12.703125 18.953125 -11.3125 18.953125 -9.59375 C 18.953125 -9.007812 18.875 -8.359375 18.71875 -7.640625 C 18.351562 -6.054688 17.664062 -4.664062 16.65625 -3.46875 C 15.644531 -2.28125 14.40625 -1.359375 12.9375 -0.703125 C 11.476562 -0.0546875 9.898438 0.265625 8.203125 0.265625 C 5.503906 0.265625 3.507812 -0.269531 2.21875 -1.34375 C 0.9375 -2.425781 0.296875 -3.859375 0.296875 -5.640625 C 0.296875 -6.242188 0.367188 -6.910156 0.515625 -7.640625 C 0.890625 -9.148438 1.59375 -10.488281 2.625 -11.65625 C 3.664062 -12.832031 4.9375 -13.742188 6.4375 -14.390625 C 7.9375 -15.046875 9.539062 -15.375 11.25 -15.375 Z M 11.15625 -12.78125 C 10.75 -12.78125 10.316406 -12.414062 9.859375 -11.6875 C 9.410156 -10.96875 8.875 -9.597656 8.25 -7.578125 C 7.632812 -5.566406 7.328125 -4.15625 7.328125 -3.34375 C 7.328125 -2.914062 7.394531 -2.628906 7.53125 -2.484375 C 7.664062 -2.335938 7.847656 -2.265625 8.078125 -2.265625 C 8.484375 -2.222656 8.90625 -2.570312 9.34375 -3.3125 C 9.78125 -4.050781 10.328125 -5.484375 10.984375 -7.609375 C 11.585938 -9.492188 11.890625 -10.863281 11.890625 -11.71875 C 11.890625 -12.125 11.828125 -12.398438 11.703125 -12.546875 C 11.578125 -12.703125 11.394531 -12.78125 11.15625 -12.78125 Z M 11.15625 -12.78125 "/></g></g></g><g fill="#ffffff" fill-opacity="1"><g transform="translate(170.66886, 52.499997)"><g><path d="M 14.265625 -15.375 C 15.347656 -15.375 16.210938 -15.039062 16.859375 -14.375 C 17.515625 -13.71875 17.84375 -12.90625 17.84375 -11.9375 C 17.84375 -11.570312 17.804688 -11.234375 17.734375 -10.921875 C 17.535156 -10.128906 17.164062 -9.519531 16.625 -9.09375 C 16.082031 -8.664062 15.429688 -8.453125 14.671875 -8.453125 C 13.941406 -8.453125 13.382812 -8.625 13 -8.96875 C 12.625 -9.320312 12.289062 -9.789062 12 -10.375 C 11.84375 -10.707031 11.695312 -10.945312 11.5625 -11.09375 C 11.425781 -11.25 11.273438 -11.328125 11.109375 -11.328125 C 10.910156 -11.328125 10.738281 -11.25 10.59375 -11.09375 C 10.445312 -10.945312 10.316406 -10.675781 10.203125 -10.28125 L 7.96875 -3.015625 C 7.925781 -2.921875 7.90625 -2.78125 7.90625 -2.59375 C 7.90625 -2.332031 7.976562 -2.117188 8.125 -1.953125 C 8.269531 -1.796875 8.46875 -1.640625 8.71875 -1.484375 C 8.945312 -1.328125 9.097656 -1.195312 9.171875 -1.09375 C 9.253906 -1 9.285156 -0.878906 9.265625 -0.734375 C 9.234375 -0.472656 9.09375 -0.285156 8.84375 -0.171875 C 8.601562 -0.0546875 8.191406 0 7.609375 0 L 0.171875 0 C -0.328125 0 -0.6875 -0.0820312 -0.90625 -0.25 C -1.132812 -0.414062 -1.21875 -0.632812 -1.15625 -0.90625 C -1.082031 -1.132812 -0.878906 -1.335938 -0.546875 -1.515625 C -0.253906 -1.671875 -0.015625 -1.851562 0.171875 -2.0625 C 0.367188 -2.28125 0.535156 -2.617188 0.671875 -3.078125 L 3.25 -11.484375 C 3.289062 -11.578125 3.3125 -11.710938 3.3125 -11.890625 C 3.3125 -12.097656 3.265625 -12.257812 3.171875 -12.375 C 3.085938 -12.5 2.953125 -12.644531 2.765625 -12.8125 C 2.566406 -12.96875 2.425781 -13.101562 2.34375 -13.21875 C 2.269531 -13.332031 2.265625 -13.488281 2.328125 -13.6875 C 2.441406 -14.132812 3.050781 -14.523438 4.15625 -14.859375 C 5.257812 -15.203125 6.410156 -15.375 7.609375 -15.375 C 8.410156 -15.375 9.070312 -15.191406 9.59375 -14.828125 C 10.113281 -14.472656 10.453125 -13.96875 10.609375 -13.3125 C 11.535156 -14.6875 12.753906 -15.375 14.265625 -15.375 Z M 14.265625 -15.375 "/></g></g></g></svg>