<svg xmlns="http://www.w3.org/2000/svg" xmlns:xlink="http://www.w3.org/1999/xlink" width="500" zoomAndPan="magnify" viewBox="0 100 300 375" height="300" preserveAspectRatio="xMidYMid meet" version="1.0"><defs><g/><clipPath id="1ac38329e7"><path d="M 265 139 L 322 139 L 322 197 L 265 197 Z M 265 139 " clip-rule="nonzero"/></clipPath><clipPath id="bfbe62942a"><path d="M 279.484375 128.230469 L 330.449219 152.039062 L 304.734375 207.078125 L 253.769531 183.269531 Z M 279.484375 128.230469 " clip-rule="nonzero"/></clipPath><clipPath id="1df69974af"><path d="M 279.484375 128.230469 L 330.449219 152.039062 L 304.734375 207.078125 L 253.769531 183.269531 Z M 279.484375 128.230469 " clip-rule="nonzero"/></clipPath><clipPath id="0428791335"><path d="M 286 151 L 308 151 L 308 175 L 286 175 Z M 286 151 " clip-rule="nonzero"/></clipPath><clipPath id="2f37a298f6"><path d="M 279.484375 128.230469 L 330.449219 152.039062 L 304.734375 207.078125 L 253.769531 183.269531 Z M 279.484375 128.230469 " clip-rule="nonzero"/></clipPath><clipPath id="4bbe7b530c"><path d="M 279.484375 128.230469 L 330.449219 152.039062 L 304.734375 207.078125 L 253.769531 183.269531 Z M 279.484375 128.230469 " clip-rule="nonzero"/></clipPath></defs><g clip-path="url(#1ac38329e7)"><g clip-path="url(#bfbe62942a)"><g clip-path="url(#1df69974af)"><path fill="#f8000f" d="M 322 162.984375 C 322.03125 157.890625 320.074219 152.925781 316.453125 149.300781 C 309.316406 142.167969 298.738281 137.734375 288.621094 139.644531 C 278.738281 141.503906 269.664062 149.273438 266.601562 158.890625 C 265.019531 163.847656 265.332031 169.21875 267.984375 173.765625 C 269.472656 176.3125 271.648438 178.503906 274.015625 180.265625 C 275.121094 181.09375 276.304688 181.882812 277.558594 182.480469 C 278.921875 183.132812 280.382812 183.566406 281.816406 184.039062 C 282.953125 184.414062 284.222656 184.757812 285.234375 185.429688 C 285.273438 185.460938 285.320312 185.46875 285.363281 185.488281 C 283.765625 188.492188 283.277344 191.945312 281.796875 195.003906 C 281.4375 195.75 282.222656 196.5625 282.988281 196.304688 C 285.230469 195.523438 287.011719 193.785156 288.625 192.105469 C 289.511719 191.1875 290.355469 190.222656 291.214844 189.28125 C 291.617188 188.839844 292.023438 188.390625 292.449219 187.960938 C 292.644531 187.765625 292.867188 187.570312 293.070312 187.363281 C 294.671875 187.695312 296.453125 187.675781 298.066406 187.570312 C 299 187.507812 299.882812 187.386719 300.726562 187.179688 C 303.273438 187.011719 305.800781 186.480469 308.140625 185.574219 C 312.269531 183.988281 315.699219 181.085938 317.992188 177.324219 C 320.574219 173.148438 321.976562 167.898438 322 162.984375 Z M 310.164062 182.847656 C 306.136719 185.289062 301.398438 186.109375 296.734375 186.058594 C 296.097656 186.050781 295.453125 186.050781 294.8125 186.050781 C 294.402344 186 293.980469 185.949219 293.570312 185.898438 C 293.398438 185.507812 292.972656 185.269531 292.464844 185.398438 C 291.484375 185.644531 290.566406 186.992188 289.902344 187.714844 C 289.097656 188.589844 288.300781 189.484375 287.484375 190.359375 C 286.535156 191.378906 285.503906 192.492188 284.34375 193.371094 C 285.039062 190.824219 285.386719 188.191406 286.261719 185.699219 C 286.527344 185.667969 286.78125 185.550781 286.996094 185.308594 C 287.390625 184.855469 287.417969 183.925781 286.855469 183.558594 C 284.648438 182.109375 281.976562 181.644531 279.558594 180.671875 C 277.070312 179.679688 274.855469 177.992188 272.960938 176.113281 C 269.433594 172.625 267.585938 167.933594 268.207031 162.984375 C 268.777344 158.445312 271.082031 154.296875 274.0625 150.894531 C 277.179688 147.347656 281.125 144.488281 285.609375 142.925781 C 294.601562 139.796875 304.417969 142.570312 311.765625 148.300781 C 313.699219 149.804688 315.570312 151.476562 316.957031 153.507812 C 318.246094 155.40625 319.121094 157.578125 319.53125 159.820312 C 320.375 164.5 319.5625 169.332031 317.789062 173.6875 C 316.21875 177.5 313.699219 180.699219 310.164062 182.847656 Z M 310.164062 182.847656 " fill-opacity="1" fill-rule="nonzero"/></g></g></g><g clip-path="url(#0428791335)"><g clip-path="url(#2f37a298f6)"><g clip-path="url(#4bbe7b530c)"><path fill="#f8000f" d="M 306.996094 156.628906 C 306.550781 155.386719 305.457031 154.667969 304.273438 154.507812 C 302.945312 154.066406 301.25 154.542969 300.101562 155.15625 C 298.984375 155.746094 298 156.617188 297.214844 157.597656 C 296.738281 158.195312 296.324219 158.828125 295.921875 159.460938 C 295.867188 159.304688 295.753906 159.175781 295.621094 159.070312 C 295.503906 157.855469 295.132812 156.664062 294.621094 155.507812 C 293.921875 153.941406 292.738281 151.757812 290.847656 151.449219 C 288.660156 151.078125 287.339844 153.738281 287.082031 155.5 C 286.644531 158.484375 287.617188 161.34375 288.125 164.246094 C 288.386719 165.765625 288.429688 167.328125 288.6875 168.855469 C 288.769531 169.378906 288.878906 170.070312 289.105469 170.683594 C 289.132812 170.878906 289.144531 171.082031 289.167969 171.277344 C 289.226562 171.746094 289.285156 172.375 289.460938 172.929688 C 289.5 173.324219 289.535156 173.722656 289.632812 174.105469 C 289.730469 174.515625 290.34375 174.6875 290.660156 174.429688 C 290.683594 174.414062 290.703125 174.398438 290.722656 174.382812 C 291.671875 174.09375 292.648438 173.605469 293.535156 173.003906 C 297.53125 170.820312 301.503906 168.300781 304.394531 164.777344 C 305.464844 163.476562 306.921875 161.113281 307.132812 159.003906 C 307.269531 158.179688 307.261719 157.351562 306.996094 156.628906 Z M 306.996094 156.628906 " fill-opacity="1" fill-rule="nonzero"/></g></g></g><g fill="#2a00f8" fill-opacity="0.4"><g transform="translate(84.59537, 223.204365)"><g><path d="M 42.25 -8.15625 C 42.070312 -7.5625 41.984375 -6.960938 41.984375 -6.359375 C 41.984375 -5.859375 42.050781 -5.429688 42.1875 -5.078125 C 42.320312 -4.734375 42.46875 -4.457031 42.625 -4.25 C 42.789062 -4.039062 42.898438 -3.890625 42.953125 -3.796875 C 43.410156 -3.335938 43.640625 -2.878906 43.640625 -2.421875 C 43.640625 -2.328125 43.59375 -2.097656 43.5 -1.734375 C 43.3125 -1.085938 42.90625 -0.632812 42.28125 -0.375 C 41.664062 -0.125 40.710938 0 39.421875 0 L 23.03125 0 C 22.0625 0 21.3125 -0.160156 20.78125 -0.484375 C 20.25 -0.804688 19.984375 -1.242188 19.984375 -1.796875 C 19.984375 -2.078125 20.050781 -2.378906 20.1875 -2.703125 C 20.332031 -3.066406 20.53125 -3.351562 20.78125 -3.5625 C 21.03125 -3.769531 21.390625 -4.007812 21.859375 -4.28125 C 22.585938 -4.695312 23.179688 -5.160156 23.640625 -5.671875 C 24.109375 -6.179688 24.503906 -7.007812 24.828125 -8.15625 L 26.625 -14.109375 L 15.84375 -14.109375 L 13.96875 -10.171875 C 13.1875 -8.460938 12.796875 -7.125 12.796875 -6.15625 C 12.796875 -5.601562 12.882812 -5.148438 13.0625 -4.796875 C 13.25 -4.453125 13.53125 -4.097656 13.90625 -3.734375 C 14.226562 -3.367188 14.445312 -3.054688 14.5625 -2.796875 C 14.675781 -2.546875 14.6875 -2.210938 14.59375 -1.796875 C 14.40625 -1.109375 14.023438 -0.632812 13.453125 -0.375 C 12.878906 -0.125 11.96875 0 10.71875 0 L 0.421875 0 C -0.640625 0 -1.445312 -0.191406 -2 -0.578125 C -2.550781 -0.972656 -2.828125 -1.492188 -2.828125 -2.140625 C -2.828125 -2.878906 -2.5625 -3.46875 -2.03125 -3.90625 C -1.507812 -4.34375 -0.71875 -4.816406 0.34375 -5.328125 C 1.726562 -6.015625 2.832031 -6.691406 3.65625 -7.359375 C 4.488281 -8.035156 5.207031 -8.972656 5.8125 -10.171875 L 18.125 -35.6875 C 20.007812 -39.644531 22.226562 -42.507812 24.78125 -44.28125 C 27.34375 -46.0625 30.722656 -46.953125 34.921875 -46.953125 C 39.628906 -46.953125 43.269531 -45.992188 45.84375 -44.078125 C 48.425781 -42.171875 49.71875 -39.507812 49.71875 -36.09375 C 49.71875 -34.664062 49.488281 -33.191406 49.03125 -31.671875 Z M 28.703125 -21.03125 L 32.359375 -33.1875 C 32.546875 -33.75 32.640625 -34.328125 32.640625 -34.921875 C 32.640625 -35.796875 32.394531 -36.453125 31.90625 -36.890625 C 31.425781 -37.328125 30.75 -37.546875 29.875 -37.546875 C 28.769531 -37.546875 27.820312 -37.222656 27.03125 -36.578125 C 26.25 -35.929688 25.46875 -34.78125 24.6875 -33.125 L 19.015625 -21.03125 Z M 28.703125 -21.03125 "/></g></g></g><g fill="#2a00f8" fill-opacity="0.4"><g transform="translate(129.405715, 223.204365)"><g><path d="M 65.765625 -9.546875 C 65.671875 -9.359375 65.625 -9.082031 65.625 -8.71875 C 65.625 -8.394531 65.703125 -8.140625 65.859375 -7.953125 C 66.023438 -7.765625 66.25 -7.671875 66.53125 -7.671875 C 67.082031 -7.671875 67.550781 -7.910156 67.9375 -8.390625 C 68.332031 -8.878906 68.597656 -9.125 68.734375 -9.125 C 68.972656 -9.125 69.160156 -8.972656 69.296875 -8.671875 C 69.429688 -8.378906 69.5 -8.023438 69.5 -7.609375 C 69.550781 -6.273438 69.113281 -4.972656 68.1875 -3.703125 C 67.269531 -2.429688 65.921875 -1.390625 64.140625 -0.578125 C 62.367188 0.222656 60.238281 0.625 57.75 0.625 C 54.707031 0.625 52.285156 -0.078125 50.484375 -1.484375 C 48.679688 -2.890625 47.757812 -4.769531 47.71875 -7.125 C 47.71875 -8.832031 48.132812 -10.742188 48.96875 -12.859375 L 52.765625 -22.828125 C 52.992188 -23.421875 53.109375 -23.90625 53.109375 -24.28125 C 53.109375 -24.875 52.910156 -25.34375 52.515625 -25.6875 C 52.128906 -26.03125 51.660156 -26.203125 51.109375 -26.203125 C 50.328125 -26.203125 49.519531 -25.859375 48.6875 -25.171875 C 47.851562 -24.484375 47.113281 -23.398438 46.46875 -21.921875 L 42.671875 -9.546875 C 42.578125 -9.359375 42.53125 -9.082031 42.53125 -8.71875 C 42.53125 -8.394531 42.609375 -8.140625 42.765625 -7.953125 C 42.929688 -7.765625 43.15625 -7.671875 43.4375 -7.671875 C 43.988281 -7.671875 44.457031 -7.910156 44.84375 -8.390625 C 45.238281 -8.878906 45.503906 -9.125 45.640625 -9.125 C 45.867188 -9.125 46.050781 -8.972656 46.1875 -8.671875 C 46.332031 -8.378906 46.40625 -8.023438 46.40625 -7.609375 C 46.445312 -6.273438 46.003906 -4.972656 45.078125 -3.703125 C 44.160156 -2.429688 42.8125 -1.390625 41.03125 -0.578125 C 39.257812 0.222656 37.128906 0.625 34.640625 0.625 C 31.597656 0.625 29.175781 -0.078125 27.375 -1.484375 C 25.582031 -2.890625 24.664062 -4.769531 24.625 -7.125 C 24.625 -8.832031 25.035156 -10.742188 25.859375 -12.859375 L 29.671875 -22.828125 C 29.898438 -23.421875 30.015625 -23.90625 30.015625 -24.28125 C 30.015625 -24.875 29.816406 -25.34375 29.421875 -25.6875 C 29.035156 -26.03125 28.566406 -26.203125 28.015625 -26.203125 C 27.222656 -26.203125 26.410156 -25.867188 25.578125 -25.203125 C 24.753906 -24.535156 24.066406 -23.460938 23.515625 -21.984375 L 18.953125 -7.1875 C 18.765625 -6.6875 18.671875 -6.203125 18.671875 -5.734375 C 18.671875 -5.179688 18.785156 -4.734375 19.015625 -4.390625 C 19.242188 -4.046875 19.566406 -3.6875 19.984375 -3.3125 C 20.304688 -3.039062 20.535156 -2.789062 20.671875 -2.5625 C 20.816406 -2.332031 20.84375 -2.054688 20.75 -1.734375 C 20.5625 -1.128906 20.117188 -0.6875 19.421875 -0.40625 C 18.734375 -0.132812 17.65625 0 16.1875 0 L 0.421875 0 C -0.785156 0 -1.648438 -0.191406 -2.171875 -0.578125 C -2.703125 -0.972656 -2.898438 -1.492188 -2.765625 -2.140625 C -2.578125 -2.691406 -2.09375 -3.175781 -1.3125 -3.59375 C -0.625 -3.96875 -0.0507812 -4.40625 0.40625 -4.90625 C 0.875 -5.414062 1.269531 -6.222656 1.59375 -7.328125 L 7.75 -27.3125 C 7.84375 -27.539062 7.890625 -27.863281 7.890625 -28.28125 C 7.890625 -28.789062 7.785156 -29.179688 7.578125 -29.453125 C 7.367188 -29.734375 7.03125 -30.082031 6.5625 -30.5 C 6.101562 -30.863281 5.78125 -31.179688 5.59375 -31.453125 C 5.414062 -31.734375 5.394531 -32.109375 5.53125 -32.578125 C 5.8125 -33.628906 7.265625 -34.554688 9.890625 -35.359375 C 12.515625 -36.171875 15.257812 -36.578125 18.125 -36.578125 C 20.375 -36.578125 22.15625 -35.953125 23.46875 -34.703125 C 24.789062 -33.460938 25.425781 -31.757812 25.375 -29.59375 C 27.269531 -32.226562 29.265625 -34.050781 31.359375 -35.0625 C 33.460938 -36.070312 35.734375 -36.578125 38.171875 -36.578125 C 40.847656 -36.578125 43.023438 -35.804688 44.703125 -34.265625 C 46.390625 -32.722656 47.328125 -30.707031 47.515625 -28.21875 C 49.492188 -31.351562 51.613281 -33.53125 53.875 -34.75 C 56.132812 -35.96875 58.597656 -36.578125 61.265625 -36.578125 C 64.078125 -36.578125 66.347656 -35.722656 68.078125 -34.015625 C 69.804688 -32.316406 70.671875 -30.109375 70.671875 -27.390625 C 70.671875 -25.953125 70.441406 -24.546875 69.984375 -23.171875 Z M 65.765625 -9.546875 "/></g></g></g><g fill="#2a00f8" fill-opacity="0.4"><g transform="translate(198.419386, 223.204365)"><g><path d="M 26.765625 -36.578125 C 33.035156 -36.578125 37.65625 -35.304688 40.625 -32.765625 C 43.601562 -30.234375 45.09375 -26.921875 45.09375 -22.828125 C 45.09375 -21.441406 44.90625 -19.894531 44.53125 -18.1875 C 43.65625 -14.40625 42.019531 -11.097656 39.625 -8.265625 C 37.226562 -5.429688 34.289062 -3.238281 30.8125 -1.6875 C 27.332031 -0.144531 23.5625 0.625 19.5 0.625 C 13.09375 0.625 8.351562 -0.648438 5.28125 -3.203125 C 2.21875 -5.765625 0.6875 -9.171875 0.6875 -13.421875 C 0.6875 -14.847656 0.875 -16.4375 1.25 -18.1875 C 2.125 -21.78125 3.789062 -24.972656 6.25 -27.765625 C 8.71875 -30.554688 11.738281 -32.722656 15.3125 -34.265625 C 18.882812 -35.804688 22.703125 -36.578125 26.765625 -36.578125 Z M 26.5625 -30.421875 C 25.59375 -30.421875 24.566406 -29.554688 23.484375 -27.828125 C 22.398438 -26.097656 21.117188 -22.835938 19.640625 -18.046875 C 18.160156 -13.253906 17.421875 -9.890625 17.421875 -7.953125 C 17.421875 -6.941406 17.582031 -6.257812 17.90625 -5.90625 C 18.226562 -5.5625 18.664062 -5.390625 19.21875 -5.390625 C 20.1875 -5.296875 21.191406 -6.125 22.234375 -7.875 C 23.273438 -9.632812 24.578125 -13.050781 26.140625 -18.125 C 27.566406 -22.59375 28.28125 -25.84375 28.28125 -27.875 C 28.28125 -28.84375 28.128906 -29.507812 27.828125 -29.875 C 27.535156 -30.238281 27.113281 -30.421875 26.5625 -30.421875 Z M 26.5625 -30.421875 "/></g></g></g><g fill="#2a00f8" fill-opacity="0.4"><g transform="translate(240.325336, 223.204365)"><g><path d="M 33.953125 -36.578125 C 36.535156 -36.578125 38.597656 -35.789062 40.140625 -34.21875 C 41.691406 -32.65625 42.46875 -30.722656 42.46875 -28.421875 C 42.46875 -27.546875 42.375 -26.738281 42.1875 -26 C 41.726562 -24.113281 40.851562 -22.660156 39.5625 -21.640625 C 38.269531 -20.628906 36.722656 -20.125 34.921875 -20.125 C 33.171875 -20.125 31.84375 -20.535156 30.9375 -21.359375 C 30.039062 -22.191406 29.25 -23.300781 28.5625 -24.6875 C 28.195312 -25.46875 27.851562 -26.039062 27.53125 -26.40625 C 27.207031 -26.78125 26.835938 -26.96875 26.421875 -26.96875 C 25.953125 -26.96875 25.546875 -26.78125 25.203125 -26.40625 C 24.859375 -26.039062 24.550781 -25.398438 24.28125 -24.484375 L 18.953125 -7.1875 C 18.859375 -6.957031 18.8125 -6.613281 18.8125 -6.15625 C 18.8125 -5.550781 18.984375 -5.050781 19.328125 -4.65625 C 19.671875 -4.269531 20.144531 -3.894531 20.75 -3.53125 C 21.300781 -3.15625 21.664062 -2.851562 21.84375 -2.625 C 22.03125 -2.394531 22.101562 -2.097656 22.0625 -1.734375 C 21.96875 -1.128906 21.628906 -0.6875 21.046875 -0.40625 C 20.472656 -0.132812 19.5 0 18.125 0 L 0.421875 0 C -0.785156 0 -1.648438 -0.191406 -2.171875 -0.578125 C -2.703125 -0.972656 -2.898438 -1.492188 -2.765625 -2.140625 C -2.578125 -2.691406 -2.09375 -3.175781 -1.3125 -3.59375 C -0.625 -3.96875 -0.0507812 -4.40625 0.40625 -4.90625 C 0.875 -5.414062 1.269531 -6.222656 1.59375 -7.328125 L 7.75 -27.3125 C 7.84375 -27.539062 7.890625 -27.863281 7.890625 -28.28125 C 7.890625 -28.789062 7.785156 -29.179688 7.578125 -29.453125 C 7.367188 -29.734375 7.03125 -30.082031 6.5625 -30.5 C 6.101562 -30.863281 5.78125 -31.179688 5.59375 -31.453125 C 5.414062 -31.734375 5.394531 -32.109375 5.53125 -32.578125 C 5.8125 -33.628906 7.265625 -34.554688 9.890625 -35.359375 C 12.515625 -36.171875 15.257812 -36.578125 18.125 -36.578125 C 20.007812 -36.578125 21.570312 -36.148438 22.8125 -35.296875 C 24.0625 -34.453125 24.867188 -33.242188 25.234375 -31.671875 C 27.453125 -34.941406 30.359375 -36.578125 33.953125 -36.578125 Z M 33.953125 -36.578125 "/></g></g></g><g fill="#0e21a0" fill-opacity="1"><g transform="translate(84.59537, 227.959101)"><g><path d="M 42.25 -8.15625 C 42.070312 -7.5625 41.984375 -6.960938 41.984375 -6.359375 C 41.984375 -5.859375 42.050781 -5.429688 42.1875 -5.078125 C 42.320312 -4.734375 42.46875 -4.457031 42.625 -4.25 C 42.789062 -4.039062 42.898438 -3.890625 42.953125 -3.796875 C 43.410156 -3.335938 43.640625 -2.878906 43.640625 -2.421875 C 43.640625 -2.328125 43.59375 -2.097656 43.5 -1.734375 C 43.3125 -1.085938 42.90625 -0.632812 42.28125 -0.375 C 41.664062 -0.125 40.710938 0 39.421875 0 L 23.03125 0 C 22.0625 0 21.3125 -0.160156 20.78125 -0.484375 C 20.25 -0.804688 19.984375 -1.242188 19.984375 -1.796875 C 19.984375 -2.078125 20.050781 -2.378906 20.1875 -2.703125 C 20.332031 -3.066406 20.53125 -3.351562 20.78125 -3.5625 C 21.03125 -3.769531 21.390625 -4.007812 21.859375 -4.28125 C 22.585938 -4.695312 23.179688 -5.160156 23.640625 -5.671875 C 24.109375 -6.179688 24.503906 -7.007812 24.828125 -8.15625 L 26.625 -14.109375 L 15.84375 -14.109375 L 13.96875 -10.171875 C 13.1875 -8.460938 12.796875 -7.125 12.796875 -6.15625 C 12.796875 -5.601562 12.882812 -5.148438 13.0625 -4.796875 C 13.25 -4.453125 13.53125 -4.097656 13.90625 -3.734375 C 14.226562 -3.367188 14.445312 -3.054688 14.5625 -2.796875 C 14.675781 -2.546875 14.6875 -2.210938 14.59375 -1.796875 C 14.40625 -1.109375 14.023438 -0.632812 13.453125 -0.375 C 12.878906 -0.125 11.96875 0 10.71875 0 L 0.421875 0 C -0.640625 0 -1.445312 -0.191406 -2 -0.578125 C -2.550781 -0.972656 -2.828125 -1.492188 -2.828125 -2.140625 C -2.828125 -2.878906 -2.5625 -3.46875 -2.03125 -3.90625 C -1.507812 -4.34375 -0.71875 -4.816406 0.34375 -5.328125 C 1.726562 -6.015625 2.832031 -6.691406 3.65625 -7.359375 C 4.488281 -8.035156 5.207031 -8.972656 5.8125 -10.171875 L 18.125 -35.6875 C 20.007812 -39.644531 22.226562 -42.507812 24.78125 -44.28125 C 27.34375 -46.0625 30.722656 -46.953125 34.921875 -46.953125 C 39.628906 -46.953125 43.269531 -45.992188 45.84375 -44.078125 C 48.425781 -42.171875 49.71875 -39.507812 49.71875 -36.09375 C 49.71875 -34.664062 49.488281 -33.191406 49.03125 -31.671875 Z M 28.703125 -21.03125 L 32.359375 -33.1875 C 32.546875 -33.75 32.640625 -34.328125 32.640625 -34.921875 C 32.640625 -35.796875 32.394531 -36.453125 31.90625 -36.890625 C 31.425781 -37.328125 30.75 -37.546875 29.875 -37.546875 C 28.769531 -37.546875 27.820312 -37.222656 27.03125 -36.578125 C 26.25 -35.929688 25.46875 -34.78125 24.6875 -33.125 L 19.015625 -21.03125 Z M 28.703125 -21.03125 "/></g></g></g><g fill="#0e21a0" fill-opacity="1"><g transform="translate(129.405715, 227.959101)"><g><path d="M 65.765625 -9.546875 C 65.671875 -9.359375 65.625 -9.082031 65.625 -8.71875 C 65.625 -8.394531 65.703125 -8.140625 65.859375 -7.953125 C 66.023438 -7.765625 66.25 -7.671875 66.53125 -7.671875 C 67.082031 -7.671875 67.550781 -7.910156 67.9375 -8.390625 C 68.332031 -8.878906 68.597656 -9.125 68.734375 -9.125 C 68.972656 -9.125 69.160156 -8.972656 69.296875 -8.671875 C 69.429688 -8.378906 69.5 -8.023438 69.5 -7.609375 C 69.550781 -6.273438 69.113281 -4.972656 68.1875 -3.703125 C 67.269531 -2.429688 65.921875 -1.390625 64.140625 -0.578125 C 62.367188 0.222656 60.238281 0.625 57.75 0.625 C 54.707031 0.625 52.285156 -0.078125 50.484375 -1.484375 C 48.679688 -2.890625 47.757812 -4.769531 47.71875 -7.125 C 47.71875 -8.832031 48.132812 -10.742188 48.96875 -12.859375 L 52.765625 -22.828125 C 52.992188 -23.421875 53.109375 -23.90625 53.109375 -24.28125 C 53.109375 -24.875 52.910156 -25.34375 52.515625 -25.6875 C 52.128906 -26.03125 51.660156 -26.203125 51.109375 -26.203125 C 50.328125 -26.203125 49.519531 -25.859375 48.6875 -25.171875 C 47.851562 -24.484375 47.113281 -23.398438 46.46875 -21.921875 L 42.671875 -9.546875 C 42.578125 -9.359375 42.53125 -9.082031 42.53125 -8.71875 C 42.53125 -8.394531 42.609375 -8.140625 42.765625 -7.953125 C 42.929688 -7.765625 43.15625 -7.671875 43.4375 -7.671875 C 43.988281 -7.671875 44.457031 -7.910156 44.84375 -8.390625 C 45.238281 -8.878906 45.503906 -9.125 45.640625 -9.125 C 45.867188 -9.125 46.050781 -8.972656 46.1875 -8.671875 C 46.332031 -8.378906 46.40625 -8.023438 46.40625 -7.609375 C 46.445312 -6.273438 46.003906 -4.972656 45.078125 -3.703125 C 44.160156 -2.429688 42.8125 -1.390625 41.03125 -0.578125 C 39.257812 0.222656 37.128906 0.625 34.640625 0.625 C 31.597656 0.625 29.175781 -0.078125 27.375 -1.484375 C 25.582031 -2.890625 24.664062 -4.769531 24.625 -7.125 C 24.625 -8.832031 25.035156 -10.742188 25.859375 -12.859375 L 29.671875 -22.828125 C 29.898438 -23.421875 30.015625 -23.90625 30.015625 -24.28125 C 30.015625 -24.875 29.816406 -25.34375 29.421875 -25.6875 C 29.035156 -26.03125 28.566406 -26.203125 28.015625 -26.203125 C 27.222656 -26.203125 26.410156 -25.867188 25.578125 -25.203125 C 24.753906 -24.535156 24.066406 -23.460938 23.515625 -21.984375 L 18.953125 -7.1875 C 18.765625 -6.6875 18.671875 -6.203125 18.671875 -5.734375 C 18.671875 -5.179688 18.785156 -4.734375 19.015625 -4.390625 C 19.242188 -4.046875 19.566406 -3.6875 19.984375 -3.3125 C 20.304688 -3.039062 20.535156 -2.789062 20.671875 -2.5625 C 20.816406 -2.332031 20.84375 -2.054688 20.75 -1.734375 C 20.5625 -1.128906 20.117188 -0.6875 19.421875 -0.40625 C 18.734375 -0.132812 17.65625 0 16.1875 0 L 0.421875 0 C -0.785156 0 -1.648438 -0.191406 -2.171875 -0.578125 C -2.703125 -0.972656 -2.898438 -1.492188 -2.765625 -2.140625 C -2.578125 -2.691406 -2.09375 -3.175781 -1.3125 -3.59375 C -0.625 -3.96875 -0.0507812 -4.40625 0.40625 -4.90625 C 0.875 -5.414062 1.269531 -6.222656 1.59375 -7.328125 L 7.75 -27.3125 C 7.84375 -27.539062 7.890625 -27.863281 7.890625 -28.28125 C 7.890625 -28.789062 7.785156 -29.179688 7.578125 -29.453125 C 7.367188 -29.734375 7.03125 -30.082031 6.5625 -30.5 C 6.101562 -30.863281 5.78125 -31.179688 5.59375 -31.453125 C 5.414062 -31.734375 5.394531 -32.109375 5.53125 -32.578125 C 5.8125 -33.628906 7.265625 -34.554688 9.890625 -35.359375 C 12.515625 -36.171875 15.257812 -36.578125 18.125 -36.578125 C 20.375 -36.578125 22.15625 -35.953125 23.46875 -34.703125 C 24.789062 -33.460938 25.425781 -31.757812 25.375 -29.59375 C 27.269531 -32.226562 29.265625 -34.050781 31.359375 -35.0625 C 33.460938 -36.070312 35.734375 -36.578125 38.171875 -36.578125 C 40.847656 -36.578125 43.023438 -35.804688 44.703125 -34.265625 C 46.390625 -32.722656 47.328125 -30.707031 47.515625 -28.21875 C 49.492188 -31.351562 51.613281 -33.53125 53.875 -34.75 C 56.132812 -35.96875 58.597656 -36.578125 61.265625 -36.578125 C 64.078125 -36.578125 66.347656 -35.722656 68.078125 -34.015625 C 69.804688 -32.316406 70.671875 -30.109375 70.671875 -27.390625 C 70.671875 -25.953125 70.441406 -24.546875 69.984375 -23.171875 Z M 65.765625 -9.546875 "/></g></g></g><g fill="#0e21a0" fill-opacity="1"><g transform="translate(198.419386, 227.959101)"><g><path d="M 26.765625 -36.578125 C 33.035156 -36.578125 37.65625 -35.304688 40.625 -32.765625 C 43.601562 -30.234375 45.09375 -26.921875 45.09375 -22.828125 C 45.09375 -21.441406 44.90625 -19.894531 44.53125 -18.1875 C 43.65625 -14.40625 42.019531 -11.097656 39.625 -8.265625 C 37.226562 -5.429688 34.289062 -3.238281 30.8125 -1.6875 C 27.332031 -0.144531 23.5625 0.625 19.5 0.625 C 13.09375 0.625 8.351562 -0.648438 5.28125 -3.203125 C 2.21875 -5.765625 0.6875 -9.171875 0.6875 -13.421875 C 0.6875 -14.847656 0.875 -16.4375 1.25 -18.1875 C 2.125 -21.78125 3.789062 -24.972656 6.25 -27.765625 C 8.71875 -30.554688 11.738281 -32.722656 15.3125 -34.265625 C 18.882812 -35.804688 22.703125 -36.578125 26.765625 -36.578125 Z M 26.5625 -30.421875 C 25.59375 -30.421875 24.566406 -29.554688 23.484375 -27.828125 C 22.398438 -26.097656 21.117188 -22.835938 19.640625 -18.046875 C 18.160156 -13.253906 17.421875 -9.890625 17.421875 -7.953125 C 17.421875 -6.941406 17.582031 -6.257812 17.90625 -5.90625 C 18.226562 -5.5625 18.664062 -5.390625 19.21875 -5.390625 C 20.1875 -5.296875 21.191406 -6.125 22.234375 -7.875 C 23.273438 -9.632812 24.578125 -13.050781 26.140625 -18.125 C 27.566406 -22.59375 28.28125 -25.84375 28.28125 -27.875 C 28.28125 -28.84375 28.128906 -29.507812 27.828125 -29.875 C 27.535156 -30.238281 27.113281 -30.421875 26.5625 -30.421875 Z M 26.5625 -30.421875 "/></g></g></g><g fill="#0e21a0" fill-opacity="1"><g transform="translate(240.325336, 227.959101)"><g><path d="M 33.953125 -36.578125 C 36.535156 -36.578125 38.597656 -35.789062 40.140625 -34.21875 C 41.691406 -32.65625 42.46875 -30.722656 42.46875 -28.421875 C 42.46875 -27.546875 42.375 -26.738281 42.1875 -26 C 41.726562 -24.113281 40.851562 -22.660156 39.5625 -21.640625 C 38.269531 -20.628906 36.722656 -20.125 34.921875 -20.125 C 33.171875 -20.125 31.84375 -20.535156 30.9375 -21.359375 C 30.039062 -22.191406 29.25 -23.300781 28.5625 -24.6875 C 28.195312 -25.46875 27.851562 -26.039062 27.53125 -26.40625 C 27.207031 -26.78125 26.835938 -26.96875 26.421875 -26.96875 C 25.953125 -26.96875 25.546875 -26.78125 25.203125 -26.40625 C 24.859375 -26.039062 24.550781 -25.398438 24.28125 -24.484375 L 18.953125 -7.1875 C 18.859375 -6.957031 18.8125 -6.613281 18.8125 -6.15625 C 18.8125 -5.550781 18.984375 -5.050781 19.328125 -4.65625 C 19.671875 -4.269531 20.144531 -3.894531 20.75 -3.53125 C 21.300781 -3.15625 21.664062 -2.851562 21.84375 -2.625 C 22.03125 -2.394531 22.101562 -2.097656 22.0625 -1.734375 C 21.96875 -1.128906 21.628906 -0.6875 21.046875 -0.40625 C 20.472656 -0.132812 19.5 0 18.125 0 L 0.421875 0 C -0.785156 0 -1.648438 -0.191406 -2.171875 -0.578125 C -2.703125 -0.972656 -2.898438 -1.492188 -2.765625 -2.140625 C -2.578125 -2.691406 -2.09375 -3.175781 -1.3125 -3.59375 C -0.625 -3.96875 -0.0507812 -4.40625 0.40625 -4.90625 C 0.875 -5.414062 1.269531 -6.222656 1.59375 -7.328125 L 7.75 -27.3125 C 7.84375 -27.539062 7.890625 -27.863281 7.890625 -28.28125 C 7.890625 -28.789062 7.785156 -29.179688 7.578125 -29.453125 C 7.367188 -29.734375 7.03125 -30.082031 6.5625 -30.5 C 6.101562 -30.863281 5.78125 -31.179688 5.59375 -31.453125 C 5.414062 -31.734375 5.394531 -32.109375 5.53125 -32.578125 C 5.8125 -33.628906 7.265625 -34.554688 9.890625 -35.359375 C 12.515625 -36.171875 15.257812 -36.578125 18.125 -36.578125 C 20.007812 -36.578125 21.570312 -36.148438 22.8125 -35.296875 C 24.0625 -34.453125 24.867188 -33.242188 25.234375 -31.671875 C 27.453125 -34.941406 30.359375 -36.578125 33.953125 -36.578125 Z M 33.953125 -36.578125 "/></g></g></g></svg>